<svg width="43" height="33" viewBox="0 0 43 33" fill="none" xmlns="http://www.w3.org/2000/svg">
<path d="M15.4884 2.6718H26.9679V22.3115H15.4884V2.6718Z" fill="#FF5F00"/>
<path d="M7.72632 32.1968V30.115C7.72632 29.3167 7.21601 28.7964 6.34131 28.7964C5.90405 28.7964 5.43026 28.9352 5.10223 29.3863C4.84724 29.0046 4.48286 28.7964 3.93619 28.7964C3.57164 28.7964 3.20742 28.9004 2.91574 29.2821V28.8658H2.15044V32.1968H2.91574V30.3578C2.91574 29.768 3.24377 29.4903 3.75408 29.4903C4.26406 29.4903 4.51938 29.8026 4.51938 30.3578V32.1968H5.28467V30.3578C5.28467 29.768 5.64889 29.4903 6.12268 29.4903C6.63299 29.4903 6.88798 29.8026 6.88798 30.3578V32.1968H7.72632ZM19.0598 28.8658H17.8209V27.8595H17.0556V28.8658H16.3632V29.5249H17.0555V31.0518C17.0555 31.8153 17.3835 32.2662 18.2582 32.2662C18.5862 32.2662 18.9504 32.1622 19.2058 32.0234L18.987 31.3988C18.7683 31.5376 18.5133 31.5723 18.3311 31.5723C17.9667 31.5723 17.8209 31.3642 17.8209 31.017V29.5249H19.0598V28.8658ZM25.5468 28.7962C25.1095 28.7962 24.818 29.0046 24.6357 29.2821V28.8658H23.8704V32.1968H24.6357V30.3231C24.6357 29.768 24.8907 29.4557 25.3645 29.4557C25.5102 29.4557 25.6925 29.4905 25.8383 29.5251L26.0569 28.8312C25.9112 28.7964 25.6925 28.7962 25.5468 28.7962ZM15.7437 29.1433C15.3791 28.9004 14.869 28.7964 14.3223 28.7964C13.4478 28.7964 12.8648 29.2127 12.8648 29.872C12.8648 30.4273 13.302 30.7395 14.0673 30.8436L14.4317 30.8784C14.8326 30.9477 15.0513 31.0518 15.0513 31.2254C15.0513 31.4682 14.7597 31.6417 14.2494 31.6417C13.7393 31.6417 13.3384 31.4682 13.0832 31.2948L12.7188 31.8499C13.1197 32.1274 13.6664 32.2662 14.2129 32.2662C15.2334 32.2662 15.8165 31.8153 15.8165 31.1906C15.8165 30.6007 15.3428 30.2884 14.6138 30.1844L14.2494 30.1496C13.9214 30.1148 13.6664 30.0456 13.6664 29.8374C13.6664 29.5945 13.9214 29.4557 14.3223 29.4557C14.7597 29.4557 15.197 29.6291 15.4156 29.7332L15.7437 29.1433ZM36.0788 28.7964C35.6414 28.7964 35.3499 29.0046 35.1676 29.2821V28.8658H34.4023V32.1968H35.1676V30.3231C35.1676 29.768 35.4227 29.4557 35.8964 29.4557C36.0423 29.4557 36.2246 29.4905 36.3703 29.5251L36.5889 28.8312C36.4432 28.7964 36.2246 28.7964 36.0788 28.7964ZM26.3121 30.5313C26.3121 31.5376 27.0408 32.2662 28.1707 32.2662C28.6808 32.2662 29.0452 32.1622 29.4096 31.8847L29.0452 31.2948C28.7537 31.5029 28.4622 31.6069 28.1342 31.6069C27.5146 31.6069 27.0774 31.1906 27.0774 30.5313C27.0774 29.9068 27.5146 29.4903 28.1342 29.4557C28.4622 29.4557 28.7537 29.5597 29.0452 29.768L29.4096 29.1781C29.0452 28.9004 28.6808 28.7964 28.1707 28.7964C27.0408 28.7964 26.3121 29.5251 26.3121 30.5313ZM33.382 28.8658H32.6167V29.2821C32.3616 28.97 31.9972 28.7964 31.5234 28.7964C30.5395 28.7964 29.7742 29.5251 29.7742 30.5313C29.7742 31.5376 30.5395 32.2662 31.5234 32.2662C32.0335 32.2662 32.3981 32.0928 32.6167 31.7805V32.1968H33.382V28.8658ZM30.5758 30.5313C30.5758 29.9414 30.9767 29.4557 31.6326 29.4557C32.2522 29.4557 32.6896 29.9068 32.6896 30.5313C32.6896 31.1212 32.2522 31.6069 31.6326 31.6069C30.9767 31.5722 30.5758 31.1212 30.5758 30.5313ZM21.4288 28.7964C20.4083 28.7964 19.6794 29.4903 19.6794 30.5313C19.6794 31.5723 20.4082 32.2662 21.4651 32.2662C21.9753 32.2662 22.4856 32.1274 22.8865 31.8153L22.5219 31.2948C22.2304 31.5029 21.866 31.6417 21.5017 31.6417C21.0279 31.6417 20.5541 31.4335 20.4447 30.8435H23.0322V30.5661C23.0688 29.4903 22.4129 28.7964 21.4288 28.7964ZM21.4288 29.4209C21.9024 29.4209 22.2306 29.6986 22.3033 30.2191H20.4812C20.5541 29.768 20.8821 29.4209 21.4288 29.4209ZM40.4154 27.5472H39.6501V29.2821C39.395 28.97 39.0306 28.7964 38.5568 28.7964C37.5729 28.7964 36.8076 29.5251 36.8076 30.5313C36.8076 31.5376 37.5729 32.2662 38.5568 32.2662C39.0671 32.2662 39.4315 32.0928 39.6501 31.7805V32.1968H40.4154V27.5472ZM37.6094 30.5313C37.6094 29.9414 38.0101 29.4557 38.6662 29.4557C39.2857 29.4557 39.723 29.9068 39.723 30.5313C39.723 31.1212 39.2857 31.6069 38.6662 31.6069C38.0101 31.5722 37.6094 31.1212 37.6094 30.5313ZM12.0264 28.8658H11.2611V29.2821C11.006 28.97 10.6416 28.7964 10.1678 28.7964C9.18387 28.7964 8.41857 29.5251 8.41857 30.5313C8.41857 31.5376 9.18387 32.2662 10.1678 32.2662C10.6781 32.2662 11.0425 32.0928 11.2611 31.7805V32.1968H12.0264V28.8658ZM9.18387 30.5313C9.18387 29.9414 9.58478 29.4557 10.2407 29.4557C10.8602 29.4557 11.2976 29.9068 11.2976 30.5313C11.2976 31.1212 10.8602 31.6069 10.2407 31.6069C9.58478 31.5722 9.18387 31.1212 9.18387 30.5313Z" fill="white"/>
<path d="M16.2171 12.4917C16.2171 8.50134 18.185 4.96196 21.2097 2.67176C18.9868 1.00624 16.1808 0 13.1196 0C5.86722 0 0 5.58647 0 12.4917C0 19.3967 5.86722 24.9834 13.1194 24.9834C16.1806 24.9834 18.9867 23.9771 21.2097 22.3114C18.185 20.056 16.2171 16.482 16.2171 12.4917Z" fill="#EB001B"/>
<path d="M42.4557 12.4917C42.4557 19.3967 36.5885 24.9834 29.3363 24.9834C26.2751 24.9834 23.469 23.9771 21.246 22.3114C24.3072 20.0214 26.2387 16.482 26.2387 12.4917C26.2387 8.50134 24.2707 4.96196 21.246 2.67176C23.4689 1.00624 26.2751 5.78797e-07 29.3363 5.78797e-07C36.5885 5.78797e-07 42.4557 5.62125 42.4557 12.4917Z" fill="#F79E1B"/>
</svg>
