<svg width="24" height="24" viewBox="0 0 24 24" fill="none" xmlns="http://www.w3.org/2000/svg">
<path d="M1.999 20.002H21V22.002H1.999V20.002ZM21.535 8.157L12.035 2.157C11.8751 2.05586 11.6897 2.00217 11.5005 2.00217C11.3113 2.00217 11.1259 2.05586 10.966 2.157L1.466 8.157C1.28391 8.27319 1.14433 8.44522 1.06816 8.64734C0.991978 8.84947 0.983298 9.07083 1.04341 9.2783C1.10353 9.48578 1.2292 9.66821 1.40164 9.7983C1.57408 9.92839 1.784 9.99916 2 10H21C21.2167 10 21.4275 9.92972 21.6008 9.7996C21.774 9.66948 21.9003 9.4866 21.9607 9.2785C22.021 9.07039 22.0121 8.84832 21.9354 8.6457C21.8586 8.44308 21.7181 8.27087 21.535 8.155V8.157ZM4 11.002H7V19.002H4V11.002ZM10 11.002H13V19.002H10V11.002ZM16 11.002H19V19.002H16V11.002Z" fill="white"/>
</svg>
