<svg width="16" height="16" viewBox="0 0 16 16" fill="none" xmlns="http://www.w3.org/2000/svg">
<path d="M9.33333 11.3333V12C9.33333 13.1045 8.4379 14 7.33333 14C6.22876 14 5.33333 13.1045 5.33333 12V11.3334M11.987 6.31738C11.9958 6.43234 12 6.54902 12 6.66665V9.14809C12 9.26662 12.0471 9.38037 12.1309 9.46417L12.4714 9.80467C12.5964 9.92973 12.6667 10.0992 12.6667 10.276V10.6666C12.6667 11.0348 12.3682 11.3333 12 11.3333H9.33333L5.33333 11.3334M5.33333 11.3334L2.66667 11.3334C2.29848 11.3334 2 11.0347 2 10.6665V10.276C2 10.0992 2.07029 9.92992 2.19531 9.80485L2.53581 9.46387C2.61959 9.38007 2.66667 9.26679 2.66667 9.14826V6.66663C2.66667 4.08932 4.756 1.99998 7.33333 1.99998C7.80774 1.99998 8.26561 2.07077 8.69696 2.20236M11.987 6.31738C12.7912 5.85818 13.3333 4.99239 13.3333 3.99998C13.3333 2.52722 12.1394 1.33331 10.6667 1.33331C9.88651 1.33331 9.1846 1.66833 8.69696 2.20236M11.987 6.31738C11.5977 6.53964 11.147 6.66665 10.6667 6.66665C9.19391 6.66665 8 5.47274 8 3.99998C8 3.30738 8.26404 2.67645 8.69696 2.20236M11.987 6.31738C11.987 6.31737 11.987 6.31738 11.987 6.31738ZM8.69696 2.20236C8.69727 2.20245 8.69758 2.20255 8.69789 2.20264" stroke="white" stroke-width="1.33333" stroke-linecap="round" stroke-linejoin="round"/>
</svg>
