<svg width="20" height="20" viewBox="0 0 20 20" fill="none" xmlns="http://www.w3.org/2000/svg">
<g clip-path="url(#clip0_223_3178)">
<path fill-rule="evenodd" clip-rule="evenodd" d="M4.94996 0.365827C5.18415 0.13134 5.50188 -0.00054748 5.83329 -0.000839233H18.3333C18.6648 -0.000839233 18.9828 0.130857 19.2172 0.365277C19.4516 0.599698 19.5833 0.91764 19.5833 1.24916V8.74916C19.5834 8.91338 19.5511 9.07602 19.4884 9.22777C19.4256 9.37952 19.3336 9.51742 19.2175 9.63358C19.1014 9.74975 18.9636 9.84189 18.8118 9.90477C18.6601 9.96764 18.4975 10 18.3333 10H5.83329C5.50177 10 5.18383 9.8683 4.94941 9.63388C4.71499 9.39946 4.58329 9.08152 4.58329 8.75V1.24999C4.58329 0.919161 4.71496 0.599994 4.94996 0.365827ZM3.33329 3.33249V1.24999C3.33331 0.811147 3.44885 0.380036 3.66829 -5.89999e-06H2.49996C2.22637 -5.89999e-06 1.95546 0.0538811 1.7027 0.158578C1.44994 0.263276 1.22028 0.416733 1.02682 0.610188C0.636119 1.00089 0.416626 1.53079 0.416626 2.08333V17.9167C0.416626 18.1902 0.470513 18.4612 0.57521 18.7139C0.679908 18.9667 0.833365 19.1963 1.02682 19.3898C1.22028 19.5833 1.44994 19.7367 1.7027 19.8414C1.95546 19.9461 2.22637 20 2.49996 20H9.99996V20.0017C10.02 20.0017 10.0391 20.0017 10.0583 20H10.0658C10.6068 19.9829 11.12 19.7559 11.4966 19.367C11.8731 18.9781 12.0836 18.458 12.0833 17.9167V12.1808C12.0833 11.9598 11.9955 11.7479 11.8392 11.5916C11.6829 11.4353 11.471 11.3475 11.25 11.3475C11.0289 11.3475 10.817 11.4353 10.6607 11.5916C10.5044 11.7479 10.4166 11.9598 10.4166 12.1808V15.625C10.4168 15.6772 10.3974 15.7276 10.3622 15.7662C10.327 15.8048 10.2786 15.8287 10.2266 15.8333H2.29163C2.23637 15.8333 2.18338 15.8114 2.14431 15.7723C2.10524 15.7332 2.08329 15.6802 2.08329 15.625V3.54166C2.08329 3.48641 2.10524 3.43342 2.14431 3.39435C2.18338 3.35528 2.23637 3.33333 2.29163 3.33333L3.33329 3.33249ZM5.55663 17.4533C5.43385 17.6372 5.38916 17.8623 5.43237 18.0792C5.47558 18.296 5.60316 18.4868 5.78704 18.6096C5.97093 18.7323 6.19605 18.777 6.41289 18.7338C6.62973 18.6906 6.82052 18.563 6.94329 18.3792C7.00408 18.2881 7.04635 18.186 7.06767 18.0786C7.08899 17.9712 7.08895 17.8607 7.06755 17.7533C7.04615 17.6459 7.00382 17.5438 6.94297 17.4528C6.88211 17.3618 6.80393 17.2837 6.71288 17.2229C6.62183 17.1621 6.51969 17.1199 6.41231 17.0985C6.30493 17.0772 6.1944 17.0773 6.08703 17.0987C5.97966 17.12 5.87756 17.1624 5.78655 17.2232C5.69555 17.2841 5.61742 17.3623 5.55663 17.4533ZM12.615 3.32249C12.4493 3.24388 12.2663 3.20861 12.0833 3.21999C11.775 3.21999 11.515 3.31916 11.345 3.45166C11.1725 3.58499 11.1233 3.72083 11.1233 3.80999C11.1233 3.89749 11.1691 4.02583 11.3383 4.15333C11.5075 4.28083 11.7683 4.37833 12.0833 4.37833C12.6416 4.37833 13.1725 4.54416 13.5783 4.84666C13.9866 5.14999 14.2933 5.61749 14.2933 6.18833C14.2933 6.75833 13.9866 7.22749 13.5808 7.53249C13.3308 7.72083 13.0316 7.85749 12.7083 7.93416V8.17416C12.7083 8.33992 12.6424 8.49889 12.5252 8.6161C12.408 8.73331 12.2491 8.79916 12.0833 8.79916C11.9175 8.79916 11.7586 8.73331 11.6414 8.6161C11.5241 8.49889 11.4583 8.33992 11.4583 8.17416V7.94083C10.9374 7.8127 10.4765 7.50899 10.1533 7.08083C10.1038 7.01533 10.0677 6.94073 10.0471 6.86129C10.0265 6.78185 10.0217 6.69912 10.033 6.61784C10.0444 6.53654 10.0716 6.45828 10.1132 6.38752C10.1548 6.31676 10.2099 6.25488 10.2754 6.20541C10.3409 6.15595 10.4155 6.11987 10.4949 6.09923C10.5744 6.0786 10.6571 6.07381 10.7384 6.08515C10.8197 6.09648 10.8979 6.12372 10.9687 6.1653C11.0394 6.20688 11.1013 6.262 11.1508 6.32749C11.2588 6.47052 11.4006 6.58452 11.5635 6.65928C11.7264 6.73403 11.9053 6.76721 12.0841 6.75583C12.4008 6.75583 12.6616 6.65916 12.8291 6.53333C12.9958 6.40833 13.0441 6.28083 13.0441 6.18833C13.0441 6.09666 12.9975 5.97166 12.8316 5.84916C12.665 5.72416 12.4025 5.62833 12.0833 5.62833C11.5208 5.62833 10.99 5.45666 10.585 5.15083C10.1808 4.84583 9.87329 4.37749 9.87329 3.81083C9.87329 3.24666 10.1783 2.77416 10.5791 2.46333C10.8291 2.26916 11.13 2.12583 11.4583 2.04499V1.82499C11.4583 1.65923 11.5241 1.50026 11.6414 1.38305C11.7586 1.26584 11.9175 1.19999 12.0833 1.19999C12.2491 1.19999 12.408 1.26584 12.5252 1.38305C12.6424 1.50026 12.7083 1.65923 12.7083 1.82499V2.03583C13.2291 2.16374 13.69 2.46715 14.0133 2.89499C14.0628 2.96049 14.0988 3.03509 14.1195 3.11453C14.1401 3.19397 14.1449 3.2767 14.1336 3.35799C14.1222 3.43928 14.095 3.51754 14.0534 3.5883C14.0118 3.65907 13.9567 3.72095 13.8912 3.77041C13.8257 3.81988 13.7511 3.85595 13.6717 3.87659C13.5922 3.89722 13.5095 3.90201 13.4282 3.89067C13.3469 3.87934 13.2687 3.8521 13.1979 3.81052C13.1271 3.76894 13.0653 3.71382 13.0158 3.64833C12.9106 3.50909 12.7734 3.39731 12.6158 3.32249H12.615Z" fill="white"/>
</g>
<defs>
<clipPath id="clip0_223_3178">
<rect width="20" height="20" fill="white"/>
</clipPath>
</defs>
</svg>
