<svg width="26" height="24" viewBox="0 0 26 24" fill="none" xmlns="http://www.w3.org/2000/svg">
<path fill-rule="evenodd" clip-rule="evenodd" d="M20.2651 0.118477C17.5879 0.795396 16.0101 3.29612 16.577 5.96388C16.9041 7.5027 17.7381 9.12426 19.2067 11.0765C21.0228 13.4912 21.3048 13.5613 22.653 11.934C25.6537 8.31169 26.695 4.98651 25.5401 2.7136C24.5411 0.746965 22.2454 -0.38243 20.2651 0.118477ZM22.7194 3.37886C23.1083 3.77124 23.2649 4.17506 23.2649 4.78628C23.2649 5.87644 22.8049 6.53654 21.8163 6.8657C21.1506 7.08745 20.9299 7.06346 20.3171 6.70336C18.9413 5.89505 18.7287 4.47036 19.8195 3.36966C20.5684 2.61404 21.9659 2.61853 22.7194 3.37886ZM9.09358 3.4246C8.01274 3.96228 6.58903 5.96927 6.05705 7.70517L5.90239 8.20967H10.3617C13.3443 8.20967 14.8209 8.13119 14.8209 7.97289C14.8209 7.5101 13.4492 4.94817 12.8621 4.3143C11.739 3.1015 10.3855 2.78221 9.09358 3.4246ZM5.88662 4.15914C4.25647 4.98898 3.04253 5.98676 2.16701 7.21727L1.4606 8.20967H3.19985H4.93933L5.32731 7.10718C5.54063 6.50089 6.06683 5.47778 6.49637 4.83359C6.9259 4.18941 7.24611 3.63088 7.20789 3.59231C7.16967 3.55375 6.57503 3.80891 5.88662 4.15914ZM14.1598 4.51812C14.5395 5.0753 15.0546 6.05806 15.304 6.70224C15.5533 7.34642 15.8393 8.07514 15.939 8.32178C16.039 8.56842 16.1806 9.32516 16.2535 10.0034C16.3264 10.6817 16.4446 11.6609 16.5161 12.1795L16.6461 13.1223L18.0112 13.1885C19.0473 13.2387 19.3762 13.3356 19.3762 13.5909C19.3762 13.8463 19.0473 13.9432 18.0112 13.9934L16.6461 14.0596L16.5195 15.0024C16.4499 15.521 16.3279 16.4246 16.2484 17.0103L16.1037 18.0753H17.9841H19.8642L20.2313 16.9285C20.4333 16.2977 20.5984 15.6139 20.5984 15.4089C20.5984 15.2038 20.7461 14.823 20.9268 14.5629C21.2321 14.123 21.2126 14.0708 20.649 13.8217C19.6966 13.4008 17.8034 10.9806 16.6857 8.75497C15.8273 7.04642 15.6593 6.50112 15.6315 5.33764C15.6015 4.07439 15.5562 3.95286 15.1131 3.95129C14.846 3.95039 14.3669 3.84949 14.0482 3.72729L13.4689 3.50509L14.1598 4.51812ZM0.719078 9.83549C0.357094 10.7102 -0.0519978 12.8591 0.112217 13.0246C0.176436 13.0896 1.11528 13.1425 2.19879 13.1425C3.5805 13.1425 4.19447 13.0589 4.25491 12.8622C4.30247 12.7082 4.40335 11.8001 4.47935 10.8443L4.61756 9.10655H2.81942H1.02106L0.719078 9.83549ZM5.60618 9.31933C5.53441 9.43638 5.41375 10.3445 5.33775 11.3373L5.19998 13.1425H10.48H15.7602L15.6239 12.1335C15.5488 11.5786 15.4262 10.6705 15.3511 10.1155L15.2149 9.10655H10.4755C7.72653 9.10655 5.68174 9.19579 5.60618 9.31933ZM0.195324 15.2961C0.302653 15.9872 0.53242 16.8953 0.705745 17.3141L1.02106 18.0753H2.84098H4.66112L4.5209 16.8982C4.44379 16.2506 4.3798 15.3428 4.37891 14.8802L4.37691 14.0394H2.18834H0L0.195324 15.2961ZM5.32664 15.665C5.53041 18.3105 5.05821 18.0933 10.4486 18.0238L15.1362 17.9632L15.2902 17.2033C15.3748 16.7854 15.5111 15.9024 15.5928 15.2414L15.7417 14.0394H10.4717H5.20154L5.32664 15.665ZM1.89791 19.5958C2.99342 21.148 5.19976 22.8425 6.75946 23.3288C7.213 23.4703 7.19211 23.3916 6.50214 22.357C6.08927 21.7377 5.58419 20.7229 5.37953 20.1016L5.00777 18.9722H3.23296H1.45793L1.89791 19.5958ZM6.26171 19.8579C6.71724 21.1602 6.99634 21.6214 7.98452 22.703C10.0362 24.949 12.4152 24.2385 14.0936 20.8781C14.34 20.3848 14.6111 19.7541 14.6962 19.4767L14.8509 18.9722H10.4015H5.95217L6.26171 19.8579ZM15.7095 19.2525C15.7093 19.7218 14.376 22.4147 13.8778 22.9521C13.2132 23.6692 13.7318 23.5907 15.3273 22.7326C16.6974 21.9956 18.5434 20.3626 19.0182 19.4671C19.2789 18.9758 19.2678 18.9722 17.4952 18.9722C16.215 18.9722 15.7097 19.0516 15.7095 19.2525Z" fill="#0065FF"/>
</svg>
