<svg width="24" height="24" viewBox="0 0 24 24" fill="none" xmlns="http://www.w3.org/2000/svg">
<path d="M3 11.0001V15.8003C3 16.9204 3 17.4801 3.21799 17.9079C3.40973 18.2843 3.71547 18.5905 4.0918 18.7823C4.5192 19.0001 5.07899 19.0001 6.19691 19.0001H17.8031C18.921 19.0001 19.48 19.0001 19.9074 18.7823C20.2837 18.5905 20.5905 18.2843 20.7822 17.9079C21 17.4805 21 16.9216 21 15.8036V11.0001M3 11.0001V9.00006M3 11.0001H21M3 9.00006V8.20026C3 7.08015 3 6.51968 3.21799 6.09186C3.40973 5.71553 3.71547 5.40979 4.0918 5.21805C4.51962 5.00006 5.08009 5.00006 6.2002 5.00006H17.8002C18.9203 5.00006 19.4796 5.00006 19.9074 5.21805C20.2837 5.40979 20.5905 5.71553 20.7822 6.09186C21 6.51926 21 7.07906 21 8.19697V9.00006M3 9.00006H21M7 15.0001H11M21 11.0001V9.00006" stroke="#0065FF" stroke-width="1.5" stroke-linecap="round" stroke-linejoin="round"/>
</svg>
