<svg width="20" height="20" viewBox="0 0 20 20" fill="none" xmlns="http://www.w3.org/2000/svg">
<path fill-rule="evenodd" clip-rule="evenodd" d="M0.412858 0.421429C0.544481 0.288018 0.701284 0.182068 0.874171 0.109725C1.04706 0.0373825 1.23259 8.65863e-05 1.42 7.5533e-07H18.3571C18.5444 -0.000192472 18.7298 0.0366896 18.9028 0.10852C19.0757 0.18035 19.2327 0.285706 19.3647 0.418513C19.4967 0.551319 19.6011 0.708948 19.6719 0.882306C19.7427 1.05566 19.7785 1.24132 19.7771 1.42857V5.71429C19.7778 6.09159 19.6288 6.45376 19.3629 6.72143C19.2314 6.85467 19.0748 6.96052 18.9022 7.03286C18.7296 7.1052 18.5443 7.14258 18.3571 7.14286H17.0314V4.88143C17.0314 4.02895 16.6928 3.21138 16.09 2.60859C15.4872 2.00579 14.6696 1.66714 13.8171 1.66714H5.96C5.10752 1.66714 4.28995 2.00579 3.68716 2.60859C3.08436 3.21138 2.74571 4.02895 2.74571 4.88143V7.14286H1.42C1.23259 7.14277 1.04706 7.10548 0.874171 7.03313C0.701284 6.96079 0.544481 6.85484 0.412858 6.72143C0.148118 6.45309 -0.000216002 6.09124 4.55509e-07 5.71429V1.42857C-0.000300589 1.05133 0.1472 0.689274 0.412858 0.421429Z" fill="white"/>
<path fill-rule="evenodd" clip-rule="evenodd" d="M4.53137 4.88143C4.53137 4.50255 4.68188 4.13919 4.94979 3.87128C5.2177 3.60337 5.58106 3.45286 5.95994 3.45286H13.8171C14.196 3.45286 14.5593 3.60337 14.8272 3.87128C15.0951 4.13919 15.2457 4.50255 15.2457 4.88143V18.2743C15.2457 18.6532 15.0951 19.0165 14.8272 19.2844C14.5593 19.5523 14.196 19.7029 13.8171 19.7029H5.95994C5.58106 19.7029 5.2177 19.5523 4.94979 19.2844C4.68188 19.0165 4.53137 18.6532 4.53137 18.2743V4.88143ZM8.81709 6.78572C8.81709 6.50155 8.92997 6.22903 9.1309 6.0281C9.33183 5.82717 9.60435 5.71429 9.88851 5.71429C10.1727 5.71429 10.4452 5.82717 10.6461 6.0281C10.8471 6.22903 10.9599 6.50155 10.9599 6.78572C10.9599 7.06988 10.8471 7.3424 10.6461 7.54333C10.4452 7.74426 10.1727 7.85714 9.88851 7.85714C9.60435 7.85714 9.33183 7.74426 9.1309 7.54333C8.92997 7.3424 8.81709 7.06988 8.81709 6.78572ZM7.38851 11.5771C7.38851 10.9141 7.65191 10.2782 8.12075 9.80938C8.58959 9.34054 9.22547 9.07714 9.88851 9.07714C10.5516 9.07714 11.1874 9.34054 11.6563 9.80938C12.1251 10.2782 12.3885 10.9141 12.3885 11.5771C12.3885 12.2402 12.1251 12.8761 11.6563 13.3449C11.1874 13.8138 10.5516 14.0771 9.88851 14.0771C9.22547 14.0771 8.58959 13.8138 8.12075 13.3449C7.65191 12.8761 7.38851 12.2402 7.38851 11.5771ZM9.88851 15.3786C9.74781 15.3786 9.60849 15.4063 9.4785 15.4601C9.34851 15.514 9.23039 15.5929 9.1309 15.6924C9.03141 15.7919 8.95249 15.91 8.89864 16.04C8.8448 16.17 8.81709 16.3093 8.81709 16.45C8.81709 16.5907 8.8448 16.73 8.89864 16.86C8.95249 16.99 9.03141 17.1081 9.1309 17.2076C9.23039 17.3071 9.34851 17.386 9.4785 17.4399C9.60849 17.4937 9.74781 17.5214 9.88851 17.5214C10.1727 17.5214 10.4452 17.4085 10.6461 17.2076C10.8471 17.0067 10.9599 16.7342 10.9599 16.45C10.9599 16.1658 10.8471 15.8933 10.6461 15.6924C10.4452 15.4915 10.1727 15.3786 9.88851 15.3786Z" fill="white"/>
</svg>
