<svg width="23" height="22" viewBox="0 0 23 22" fill="none" xmlns="http://www.w3.org/2000/svg">
<path fill-rule="evenodd" clip-rule="evenodd" d="M14.769 6.392C14.769 7.36084 14.3841 8.28999 13.6991 8.97506C13.014 9.66013 12.0848 10.045 11.116 10.045C10.1472 10.045 9.21801 9.66013 8.53294 8.97506C7.84787 8.28999 7.463 7.36084 7.463 6.392C7.463 4.11 11.116 0 11.116 0C11.116 0 14.769 4.11 14.769 6.392ZM19.906 8.81C20.416 8.363 21.123 8.205 21.881 8.445L22.231 8.555L22.225 16.337L17.571 21.221H12.149V17.573C12.139 16.763 12.472 15.949 13.049 15.347L13.055 15.34L14.145 14.24C14.5814 13.7997 15.1659 13.5373 15.7849 13.5036C16.404 13.47 17.0134 13.6676 17.495 14.058L17.643 14.179V14.184L15.739 16.089L16.799 17.149L18.924 15.026L19.144 14.806V10.624C19.144 9.912 19.409 9.245 19.906 8.81ZM0.35 8.444C1.108 8.204 1.814 8.362 2.324 8.809C2.821 9.244 3.087 9.911 3.087 10.623V14.804L3.307 15.024L5.431 17.148L6.491 16.088L4.587 14.183V14.178L4.737 14.058C5.21831 13.668 5.82727 13.4706 6.44584 13.504C7.06441 13.5375 7.64854 13.7994 8.085 14.239L9.176 15.339L9.182 15.346C9.758 15.948 10.092 16.763 10.082 17.572V21.22H4.66L0.005 16.336L0 8.555L0.35 8.445V8.444Z" fill="white"/>
</svg>
