<svg width="24" height="24" viewBox="0 0 24 24" fill="none" xmlns="http://www.w3.org/2000/svg">
<path d="M20 1.91901H4C3.46957 1.91901 2.96086 2.12972 2.58579 2.50479C2.21072 2.87987 2 3.38857 2 3.91901H2.051C2.01891 4.05642 2.00181 4.19691 2 4.33801V15.214C1.99946 15.6269 2.12672 16.0298 2.36431 16.3675C2.60191 16.7052 2.93819 16.9611 3.327 17.1L15.327 21.386C15.629 21.4939 15.9526 21.5276 16.2704 21.4843C16.5882 21.4409 16.891 21.3217 17.153 21.1368C17.4151 20.9519 17.6289 20.7067 17.7763 20.4218C17.9237 20.1369 18.0004 19.8208 18 19.5V16.919H20C20.5304 16.919 21.0391 16.7083 21.4142 16.3332C21.7893 15.9581 22 15.4494 22 14.919V3.91901C22 3.38857 21.7893 2.87987 21.4142 2.50479C21.0391 2.12972 20.5304 1.91901 20 1.91901ZM16 19.5L4 15.214V4.33801L16 8.62401V19.5ZM20 14.919H18V8.62401C18.0001 8.21146 17.8727 7.80896 17.6351 7.47168C17.3975 7.13439 17.0615 6.87883 16.673 6.74001L8.773 3.91901H20V14.919Z" fill="white"/>
<path d="M11 12.419C11 12.616 11.0388 12.811 11.1142 12.993C11.1896 13.175 11.3001 13.3404 11.4393 13.4797C11.5786 13.619 11.744 13.7294 11.926 13.8048C12.108 13.8802 12.303 13.919 12.5 13.919C12.697 13.919 12.892 13.8802 13.074 13.8048C13.256 13.7294 13.4214 13.619 13.5607 13.4797C13.6999 13.3404 13.8104 13.175 13.8858 12.993C13.9612 12.811 14 12.616 14 12.419C14 12.222 13.9612 12.027 13.8858 11.845C13.8104 11.663 13.6999 11.4976 13.5607 11.3583C13.4214 11.2191 13.256 11.1086 13.074 11.0332C12.892 10.9578 12.697 10.919 12.5 10.919C12.303 10.919 12.108 10.9578 11.926 11.0332C11.744 11.1086 11.5786 11.2191 11.4393 11.3583C11.3001 11.4976 11.1896 11.663 11.1142 11.845C11.0388 12.027 11 12.222 11 12.419Z" fill="white"/>
</svg>
