<svg width="12" height="12" viewBox="0 0 12 12" fill="none" xmlns="http://www.w3.org/2000/svg">
<path d="M5.5385 3.69236L1.84619 7.38467V9.23083H9.23081M1.84619 9.23083L3.69235 9.23081L7.38465 5.53851M5.5385 3.69236L6.86248 2.36837L6.86328 2.36758C7.04553 2.18533 7.13682 2.09404 7.24205 2.05985C7.33475 2.02973 7.43461 2.02973 7.52731 2.05985C7.63246 2.09402 7.72365 2.1852 7.90564 2.3672L8.70863 3.17018C8.8914 3.35296 8.98283 3.44439 9.01707 3.54977C9.04719 3.64247 9.04718 3.74232 9.01706 3.83502C8.98285 3.94032 8.89155 4.03162 8.70904 4.21413L8.70864 4.21452L7.38465 5.53851M5.5385 3.69236L7.38465 5.53851" stroke="#0047B3" stroke-width="0.923077" stroke-linecap="round" stroke-linejoin="round"/>
</svg>
