<svg width="24" height="24" viewBox="0 0 24 24" fill="none" xmlns="http://www.w3.org/2000/svg">
<path fill-rule="evenodd" clip-rule="evenodd" d="M11 4.914L8.29297 2.207L9.70697 0.792999L12 3.086L14.293 0.792999L15.707 2.207L13 4.914V8.086L13.75 8.836L16 6.586V4H18V6H20V8H17.414L15.164 10.25L15.914 11H18.586L21.293 8.293L22.707 9.707L20.414 12L22.707 14.293L21.293 15.707L18.586 13H15.914L15.164 13.75L17.414 16H20V18H18V20H16V17.414L13.75 15.164L13 15.914V19.086L15.707 21.793L14.293 23.207L12 20.914L9.70697 23.207L8.29297 21.793L11 19.086V15.914L10.25 15.164L7.99997 17.414V20H5.99997V18H3.99997V16H6.58597L8.83597 13.75L8.08597 13H4.91397L2.20697 15.707L0.792969 14.293L3.08597 12L0.792969 9.707L2.20697 8.293L4.91397 11H8.08597L8.83597 10.25L6.58597 8H3.99997V6H5.99997V4H7.99997V6.586L10.25 8.836L11 8.086V4.914ZM12 14.086L9.91397 12L12 9.914L14.086 12L12 14.086Z" fill="#E9E9EA"/>
</svg>
