<svg width="24" height="24" viewBox="0 0 24 24" fill="none" xmlns="http://www.w3.org/2000/svg">
<path d="M3 1.375H9.73047L10.6445 4.11816L10.7295 4.375H21C21.8929 4.375 22.625 5.10711 22.625 6V21C22.625 21.8929 21.8929 22.625 21 22.625H12.2695L11.3555 19.8818L11.2705 19.625H3C2.10711 19.625 1.375 18.8929 1.375 18V3C1.375 2.10711 2.10711 1.375 3 1.375ZM11.1045 5.62012L12.3848 9.41016L12.4707 9.66504H14.5547V8.375H15.0947V9.66504H19.625V10.2148H17.8232L17.7412 10.4795C17.288 11.9547 16.5173 13.3431 15.4287 14.5498L15.415 14.5645L15.1475 14.832L15.417 15.0977L18.4463 18.082L18.0596 18.4688L15.2256 15.6348L14.6045 16.0195L15.5791 18.9248L13.707 21.2656L13.2197 21.875H20.5C21.2571 21.875 21.875 21.2571 21.875 20.5V6.5C21.875 5.74289 21.2571 5.125 20.5 5.125H10.9375L11.1045 5.62012ZM7 5.625C4.03289 5.625 1.625 8.03289 1.625 11C1.625 13.9671 4.03289 16.375 7 16.375C8.53604 16.375 9.83664 15.8336 10.7529 14.8887C11.6679 13.945 12.1747 12.6248 12.1748 11.1104C12.1748 10.6648 12.1199 10.3358 12.0459 10.0078L11.9795 9.71484H6.625V12.1748H9.46484C9.23237 12.9422 8.50152 13.835 7 13.835C5.47398 13.835 4.22461 12.5698 4.22461 11C4.22461 9.43016 5.47398 8.16504 7 8.16504C7.87339 8.16504 8.44552 8.53208 8.77246 8.8418L9.03223 9.08887L9.29004 8.83984L10.6104 7.57031L10.8975 7.29395L10.6035 7.02441C9.66842 6.16456 8.44947 5.625 7 5.625ZM12.8145 10.6982L13.6211 13.1182L13.6504 13.1621C13.9196 13.5555 14.2192 13.9377 14.5391 14.2988L14.8174 14.6123L15.0986 14.3018C16.0733 13.2234 16.7785 11.9989 17.2246 10.7021L17.3955 10.2051H12.6494L12.8145 10.6982Z" fill="#0047B3" stroke="#0065FF" stroke-width="0.75"/>
</svg>
