<svg width="24" height="24" viewBox="0 0 24 24" fill="none" xmlns="http://www.w3.org/2000/svg">
<g clip-path="url(#clip0_4797_28)">
<path d="M22 0H2C1.46957 0 0.960859 0.210714 0.585786 0.585786C0.210714 0.960859 0 1.46957 0 2V19C0 19.2652 0.105357 19.5196 0.292893 19.7071C0.48043 19.8946 0.734784 20 1 20H13V18H2V6H22V14H24V2C24 1.46957 23.7893 0.960859 23.4142 0.585786C23.0391 0.210714 22.5304 0 22 0ZM2 4V2H22V4H2Z" fill="white"/>
<path d="M12 7.5H11C11 7.89782 10.842 8.27936 10.5607 8.56066C10.2794 8.84196 9.89782 9 9.5 9C9.10217 9 8.72064 8.84196 8.43934 8.56066C8.15803 8.27936 8 7.89782 8 7.5H7C6.7348 7.50006 6.48049 7.60545 6.293 7.793L3.586 10.5L5.5 12.5L6.586 11.5V15.5H12.414V11.5L13.5 12.5L15.414 10.5L12.707 7.793C12.5195 7.60545 12.2652 7.50006 12 7.5Z" fill="white"/>
<path d="M22.218 17.268L15.5 15.5L17.268 22.218L19.036 20.45L22.218 23.632L23.632 22.218L20.45 19.036L22.218 17.268Z" fill="white"/>
</g>
<defs>
<clipPath id="clip0_4797_28">
<rect width="24" height="24" fill="white"/>
</clipPath>
</defs>
</svg>
