<svg width="22" height="22" viewBox="0 0 22 22" fill="none" xmlns="http://www.w3.org/2000/svg">
<path d="M3.4375 4.46875C3.4375 3.8995 3.8995 3.4375 4.46875 3.4375H8.59375C9.163 3.4375 9.625 3.8995 9.625 4.46875V8.59375C9.625 9.163 9.163 9.625 8.59375 9.625H4.46875C4.19525 9.625 3.93294 9.51635 3.73955 9.32295C3.54615 9.12956 3.4375 8.86725 3.4375 8.59375V4.46875ZM3.4375 13.4063C3.4375 12.837 3.8995 12.375 4.46875 12.375H8.59375C9.163 12.375 9.625 12.837 9.625 13.4063V17.5313C9.625 18.1005 9.163 18.5625 8.59375 18.5625H4.46875C4.19525 18.5625 3.93294 18.4539 3.73955 18.2605C3.54615 18.0671 3.4375 17.8048 3.4375 17.5313V13.4063ZM12.375 4.46875C12.375 3.8995 12.837 3.4375 13.4063 3.4375H17.5313C18.1005 3.4375 18.5625 3.8995 18.5625 4.46875V8.59375C18.5625 9.163 18.1005 9.625 17.5313 9.625H13.4063C13.1327 9.625 12.8704 9.51635 12.677 9.32295C12.4836 9.12956 12.375 8.86725 12.375 8.59375V4.46875Z" stroke="white" stroke-width="1.375" stroke-linecap="round" stroke-linejoin="round"/>
<path d="M6.1875 6.1875H6.875V6.875H6.1875V6.1875ZM6.1875 15.125H6.875V15.8125H6.1875V15.125ZM15.125 6.1875H15.8125V6.875H15.125V6.1875ZM12.375 12.375H13.0625V13.0625H12.375V12.375ZM12.375 17.875H13.0625V18.5625H12.375V17.875ZM17.875 12.375H18.5625V13.0625H17.875V12.375ZM17.875 17.875H18.5625V18.5625H17.875V17.875ZM15.125 15.125H15.8125V15.8125H15.125V15.125Z" stroke="white" stroke-width="1.375" stroke-linecap="round" stroke-linejoin="round"/>
</svg>
