<svg width="28" height="28" viewBox="0 0 28 28" fill="none" xmlns="http://www.w3.org/2000/svg">
<path d="M5.83333 16.3333V14H8.16667V16.3333H5.83333ZM3.5 14V11.6667H5.83333V14H3.5ZM14 5.83333V3.5H16.3333V5.83333H14ZM5.25 8.75H8.75V5.25H5.25V8.75ZM3.5 10.5V3.5H10.5V10.5H3.5ZM5.25 22.75H8.75V19.25H5.25V22.75ZM3.5 24.5V17.5H10.5V24.5H3.5ZM19.25 8.75H22.75V5.25H19.25V8.75ZM17.5 10.5V3.5H24.5V10.5H17.5ZM10.5 16.3333V14H8.16667V11.6667H12.8333V16.3333H10.5ZM11.6667 10.5V5.83333H14V8.16667H16.3333V10.5H11.6667ZM6.125 7.875V6.125H7.875V7.875H6.125ZM6.125 21.875V20.125H7.875V21.875H6.125ZM20.125 7.875V6.125H21.875V7.875H20.125ZM18.6667 24.5V21H15.1667V18.6667H18.6667V15.1667H21V18.6667H24.5V21H21V24.5H18.6667Z" fill="white"/>
</svg>
