<svg width="28" height="28" viewBox="0 0 28 28" fill="none" xmlns="http://www.w3.org/2000/svg">
<path d="M6.09361 2.625C5.51378 2.625 4.95728 2.856 4.54778 3.26667L3.03111 4.781C2.24738 5.56328 1.78944 6.61365 1.74965 7.72028C1.70987 8.8269 2.0912 9.90745 2.81673 10.744C3.54227 11.5805 4.55803 12.1108 5.65916 12.2279C6.76029 12.345 7.86486 12.0402 8.75011 11.375C9.48161 11.9233 10.3904 12.25 11.3751 12.25C12.3598 12.25 13.2698 11.9233 14.0001 11.375C14.7304 11.9233 15.6404 12.25 16.6251 12.25C17.6098 12.25 18.5186 11.9233 19.2501 11.375C20.1354 12.0402 21.2399 12.345 22.3411 12.2279C23.4422 12.1108 24.458 11.5805 25.1835 10.744C25.909 9.90745 26.2904 8.8269 26.2506 7.72028C26.2108 6.61365 25.7528 5.56328 24.9691 4.781L23.4524 3.2655C23.0424 2.85557 22.4864 2.6252 21.9066 2.625H6.09361Z" fill="white"/>
<path fill-rule="evenodd" clip-rule="evenodd" d="M3.5 23.625V13.4108C5.15667 14.1972 7.09333 14.196 8.75 13.4108C9.57032 13.7999 10.4671 14.0012 11.375 14C12.313 14 13.2043 13.7877 14 13.4097C14.8202 13.7992 15.717 14.0008 16.625 14C17.563 14 18.4532 13.7877 19.25 13.4097C20.9067 14.196 22.8433 14.1972 24.5 13.4108V23.625H25.375C25.6071 23.625 25.8296 23.7172 25.9937 23.8813C26.1578 24.0454 26.25 24.2679 26.25 24.5C26.25 24.7321 26.1578 24.9546 25.9937 25.1187C25.8296 25.2828 25.6071 25.375 25.375 25.375H2.625C2.39294 25.375 2.17038 25.2828 2.00628 25.1187C1.84219 24.9546 1.75 24.7321 1.75 24.5C1.75 24.2679 1.84219 24.0454 2.00628 23.8813C2.17038 23.7172 2.39294 23.625 2.625 23.625H3.5ZM7 16.625C7 16.3929 7.09219 16.1704 7.25628 16.0063C7.42038 15.8422 7.64294 15.75 7.875 15.75H11.375C11.6071 15.75 11.8296 15.8422 11.9937 16.0063C12.1578 16.1704 12.25 16.3929 12.25 16.625V20.125C12.25 20.3571 12.1578 20.5796 11.9937 20.7437C11.8296 20.9078 11.6071 21 11.375 21H7.875C7.64294 21 7.42038 20.9078 7.25628 20.7437C7.09219 20.5796 7 20.3571 7 20.125V16.625ZM16.625 15.75C16.3929 15.75 16.1704 15.8422 16.0063 16.0063C15.8422 16.1704 15.75 16.3929 15.75 16.625V22.75C15.75 23.233 16.142 23.625 16.625 23.625H20.125C20.3571 23.625 20.5796 23.5328 20.7437 23.3687C20.9078 23.2046 21 22.9821 21 22.75V16.625C21 16.3929 20.9078 16.1704 20.7437 16.0063C20.5796 15.8422 20.3571 15.75 20.125 15.75H16.625Z" fill="white"/>
</svg>
