<svg width="28" height="28" viewBox="0 0 28 28" fill="none" xmlns="http://www.w3.org/2000/svg">
<path d="M21.1206 0.0157979C20.6482 -0.0377534 20.1487 0.0438641 19.7353 0.275569C18.9065 0.734779 18.733 1.61181 19.3452 2.23342C22.5184 5.45349 24.2668 9.6316 24.2668 13.9997C24.2668 18.3678 22.5184 22.5472 19.3452 25.7687C18.733 26.3903 18.9065 27.2673 19.7353 27.7266C20.0675 27.9128 20.4572 28 20.8436 28C21.4166 28 21.9797 27.8036 22.3456 27.434C25.991 23.7337 28 18.9628 28 13.9997C28 9.03659 25.991 4.26703 22.3456 0.568154C22.0395 0.258047 21.5931 0.0693491 21.1206 0.0157979ZM14.8428 2.87055C14.3694 2.82382 13.8735 2.91355 13.4647 3.14946C12.6472 3.61987 12.4912 4.49957 13.1184 5.11278C15.4572 7.39763 16.8005 10.6368 16.8005 13.9997C16.8005 17.3542 15.4643 20.5894 13.133 22.8757C12.5077 23.4889 12.6635 24.3673 13.483 24.8363C13.8208 25.0309 14.2174 25.1261 14.6131 25.1261C15.1731 25.1261 15.7273 24.9363 16.0969 24.5765C18.9565 21.7722 20.5337 18.015 20.5337 13.9997C20.5337 9.97321 18.9513 6.21216 16.0787 3.4065C15.7642 3.09989 15.3162 2.91727 14.8428 2.87055ZM8.58684 5.67334C8.11016 5.64919 7.62161 5.76238 7.2343 6.01788C6.4578 6.52609 6.37987 7.40973 7.05931 7.99214C8.46297 9.19617 9.3342 11.4978 9.3342 13.9997C9.3342 16.5016 8.4612 18.8032 7.05566 20.0072C6.37809 20.5897 6.4578 21.4733 7.2343 21.9815C7.58895 22.2139 8.02797 22.3288 8.46289 22.3288C8.98366 22.3288 9.50053 22.1681 9.87011 21.8503C11.8711 20.1338 13.0674 17.1974 13.0674 13.9997C13.0674 10.802 11.8693 7.86557 9.86647 6.14913C9.52675 5.85723 9.06352 5.69749 8.58684 5.67334ZM1.98819 8.66208C1.51151 8.6388 1.0239 8.75181 0.635647 9.00662C-0.138984 9.51623 -0.217001 10.3999 0.464301 10.9809C1.35466 11.7439 1.86788 12.8447 1.86788 13.9997C1.86788 15.1547 1.35466 16.2555 0.464301 17.0185C-0.215134 17.5995 -0.135338 18.4832 0.639292 18.9928C0.993943 19.2252 1.4311 19.34 1.86788 19.34C2.38492 19.34 2.90375 19.1793 3.27146 18.8643C4.77593 17.5804 5.60104 15.8519 5.60104 13.9997C5.60104 12.1475 4.77593 10.419 3.27146 9.13514C2.93268 8.84463 2.46487 8.68536 1.98819 8.66208Z" fill="white"/>
</svg>
