<svg width="24" height="24" viewBox="0 0 24 24" fill="none" xmlns="http://www.w3.org/2000/svg">
<path fill-rule="evenodd" clip-rule="evenodd" d="M16.358 17.772L22 23.414L23.414 22L18.209 16.795C20.1326 15.5525 21.6623 13.7876 22.619 11.707C20.723 7.576 16.549 4.707 11.707 4.707C10.057 4.707 8.487 5.04 7.056 5.642L1.414 0L0 1.414L5.205 6.619L5.193 6.627L8.617 10.052L8.624 10.038L13.376 14.79L13.362 14.797L16.344 17.778C16.3486 17.7759 16.3533 17.7739 16.358 17.772ZM14.79 13.376L10.038 8.624C10.7022 8.2638 11.465 8.12787 12.2127 8.23647C12.9604 8.34508 13.6531 8.6924 14.1873 9.22667C14.7216 9.76094 15.0689 10.4536 15.1775 11.2013C15.2861 11.949 15.1502 12.7118 14.79 13.376ZM3.974 7.53C2.61966 8.67148 1.53386 10.0977 0.794 11.707C2.691 15.838 6.864 18.707 11.707 18.707C12.7369 18.7076 13.7627 18.5759 14.759 18.315L3.974 7.53Z" fill="white"/>
</svg>
